<svg xmlns="http://www.w3.org/2000/svg" viewBox="0 0 64 64" width="64" height="64">
  <defs>
    <linearGradient id="grad1" x1="0%" y1="0%" x2="100%" y2="100%">
      <stop offset="0%" style="stop-color:#1a3a5c;stop-opacity:1" />
      <stop offset="100%" style="stop-color:#0097b2;stop-opacity:1" />
    </linearGradient>
    <linearGradient id="grad2" x1="0%" y1="0%" x2="100%" y2="100%">
      <stop offset="0%" style="stop-color:#0097b2;stop-opacity:1" />
      <stop offset="100%" style="stop-color:#00c2a8;stop-opacity:1" />
    </linearGradient>
  </defs>
  <!-- Main circular crescent body -->
  <path d="M32 4 C48 4 60 16 60 32 C60 48 48 60 32 60 C16 60 4 48 4 32 C4 16 16 4 32 4 Z" fill="url(#grad1)" />
  <path d="M38 8 C50 12 56 24 52 38 C48 52 36 58 28 58 C40 54 48 42 46 28 C44 18 40 10 38 8 Z" fill="url(#grad2)" />
  <!-- Figure silhouette -->
  <circle cx="28" cy="18" r="5" fill="white" opacity="0.95"/>
  <path d="M22 26 C22 26 24 24 28 24 C32 24 34 26 34 26 L36 38 C36 40 34 42 32 42 L24 42 C22 42 20 40 20 38 Z" fill="white" opacity="0.95"/>
  <!-- Leaf/wing accent -->
  <path d="M36 22 C40 18 48 18 50 24 C52 30 48 36 42 34 C46 30 44 24 36 22 Z" fill="white" opacity="0.7"/>
  <!-- Small bubbles -->
  <circle cx="44" cy="14" r="2.5" fill="white" opacity="0.5"/>
  <circle cx="50" cy="20" r="1.5" fill="white" opacity="0.4"/>
</svg>
